#N canvas -9 -9 1920 976 12;
#X obj 162 95 hsl 240 12 0.012 0.045 1 0 empty empty speed 16 6 1 8
-260097 -1 -1 0 1;
#X obj 159 593 dac~;
#N canvas -117 50 889 1030 noise 0;
#X obj 181 167 noise~;
#X obj 597 257 loadbang;
#X msg 657 512 0.6;
#X obj 335 442 clip~ -1 1;
#X obj 509 54 inlet~;
#X obj 322 669 outlet~;
#X obj 449 485 *~ 12000;
#X msg 516 296 1;
#X obj 323 303 vcf~ 0 1;
#X obj 325 515 vcf~ 0 0.6;
#X obj 468 129 *~ 1;
#X obj 347 212 *~ 80;
#X obj 343 341 hip~ 60;
#X obj 339 395 *~ 20;
#X obj 324 566 *~ 2;
#X obj 665 59 inlet;
#X obj 665 83 * 0.25;
#X text 718 57 <-- aktueller Gang;
#X obj 181 207 bp~ 500 0.5;
#X obj 325 619 lop~ 1000;
#X connect 0 0 18 0;
#X connect 1 0 2 0;
#X connect 1 0 7 0;
#X connect 2 0 9 2;
#X connect 3 0 9 0;
#X connect 4 0 10 0;
#X connect 6 0 9 1;
#X connect 7 0 8 2;
#X connect 8 0 12 0;
#X connect 9 0 14 0;
#X connect 10 0 11 0;
#X connect 10 0 6 0;
#X connect 11 0 8 1;
#X connect 12 0 13 0;
#X connect 13 0 3 0;
#X connect 14 0 19 0;
#X connect 15 0 16 0;
#X connect 16 0 10 1;
#X connect 18 0 8 0;
#X connect 19 0 5 0;
#X restore 164 379 pd noise;
#X text 857 83 <-- !!! this is where the magic happens !!!;
#X obj 155 259 sig~;
#X obj 143 189 line, f 7;
#X floatatom 143 208 5 0 0 0 - - -;
#X text 97 167 smoothing;
#X msg 166 166 2000;
#X obj 167 561 *~ 0.05;
#X msg 284 521 0;
#X msg 328 523 0.05;
#X floatatom 217 320 5 1 6 0 - - -;
#X obj 220 264 float;
#X obj 327 267 float;
#X obj 220 221 bng 15 250 50 0 empty empty empty 17 7 0 10 -262144
-1 -1;
#X obj 327 224 bng 15 250 50 0 empty empty empty 17 7 0 10 -262144
-1 -1;
#X obj 252 217 + 1;
#X obj 359 222 - 1;
#X obj 797 84 lop~ 0.2;
#X text 262 321 <-- only 1 to 6;
#X msg 381 523 0.15;
#X msg 343 647 stop;
#X obj 260 701 writesf~ 2;
#X msg 313 620 open 10_Motor.wav \, start;
#N canvas -117 50 1054 1030 noise 0;
#X obj 181 167 noise~;
#X obj 597 257 loadbang;
#X msg 657 512 0.6;
#X obj 335 442 clip~ -1 1;
#X obj 509 54 inlet~;
#X obj 322 669 outlet~;
#X obj 449 485 *~ 12000;
#X msg 516 296 1;
#X obj 323 303 vcf~ 0 1;
#X obj 325 515 vcf~ 0 0.6;
#X obj 468 129 *~ 1;
#X obj 347 212 *~ 80;
#X obj 343 341 hip~ 60;
#X obj 339 395 *~ 20;
#X obj 324 566 *~ 2;
#X obj 665 59 inlet;
#X obj 665 83 * 0.25;
#X text 718 57 <-- aktueller Gang;
#X obj 181 207 bp~ 500 0.5;
#X obj 325 619 lop~ 1000;
#X connect 0 0 18 0;
#X connect 1 0 2 0;
#X connect 1 0 7 0;
#X connect 2 0 9 2;
#X connect 3 0 9 0;
#X connect 4 0 10 0;
#X connect 6 0 9 1;
#X connect 7 0 8 2;
#X connect 8 0 12 0;
#X connect 9 0 14 0;
#X connect 10 0 11 0;
#X connect 10 0 6 0;
#X connect 11 0 8 1;
#X connect 12 0 13 0;
#X connect 13 0 3 0;
#X connect 14 0 19 0;
#X connect 15 0 16 0;
#X connect 16 0 10 1;
#X connect 18 0 8 0;
#X connect 19 0 5 0;
#X restore 252 382 pd noise;
#X obj 219 492 lop~ 3000;
#X obj 212 418 *~ 2;
#X obj 98 422 *~ 1;
#X obj 109 471 lop~ 500;
#X obj 210 456 clip~ -0.85 0.85;
#X connect 0 0 5 0;
#X connect 0 0 8 0;
#X connect 2 0 28 0;
#X connect 4 0 2 0;
#X connect 4 0 25 0;
#X connect 5 0 6 0;
#X connect 6 0 4 0;
#X connect 8 0 5 1;
#X connect 9 0 1 0;
#X connect 9 0 1 1;
#X connect 9 0 23 0;
#X connect 9 0 23 1;
#X connect 10 0 9 1;
#X connect 11 0 9 1;
#X connect 12 0 2 1;
#X connect 12 0 25 0;
#X connect 13 0 17 0;
#X connect 13 0 12 0;
#X connect 13 0 14 1;
#X connect 14 0 12 0;
#X connect 14 0 18 0;
#X connect 14 0 13 1;
#X connect 15 0 13 0;
#X connect 16 0 14 0;
#X connect 17 0 13 1;
#X connect 18 0 14 1;
#X connect 21 0 9 1;
#X connect 22 0 23 0;
#X connect 24 0 23 0;
#X connect 25 0 27 0;
#X connect 26 0 9 0;
#X connect 27 0 30 0;
#X connect 28 0 29 0;
#X connect 29 0 9 0;
#X connect 30 0 26 0;
