#N canvas -8 0 1294 1326 12;
#X obj 90 108 sig~;
#X obj 92 51 hsl 400 12 0.012 0.045 1 0 empty empty speed 16 6 1 8
-260097 -1 -1 0 1;
#X obj 90 206 +~;
#X obj 53 338 dac~;
#N canvas 1300 0 1250 1326 engine 1;
#X obj 106 308 osc~;
#X obj 199 313 osc~;
#X obj 239 315 osc~;
#X obj 100 166 sig~;
#X obj 194 174 sig~;
#X obj 259 170 sig~;
#X obj 106 276 *~;
#X obj 199 277 *~;
#X obj 239 278 *~;
#X obj 52 7 loadbang;
#X obj 180 593 outlet~;
#X obj 391 173 inlet~ engine speed;
#X msg 100 57 3097;
#X floatatom 101 87 5 0 0 0 - - -;
#X floatatom 192 97 5 0 0 0 - - -;
#X floatatom 256 98 5 0 0 0 - - -;
#X obj 115 386 *~ 0.5;
#X obj 179 549 lop~ 300;
#X obj 185 387 *~ 0.3;
#X msg 191 67 7471;
#X msg 255 67 11000;
#X connect 0 0 16 0;
#X connect 1 0 18 0;
#X connect 2 0 18 0;
#X connect 3 0 6 0;
#X connect 4 0 7 0;
#X connect 5 0 8 0;
#X connect 6 0 0 0;
#X connect 7 0 1 0;
#X connect 8 0 2 0;
#X connect 9 0 12 0;
#X connect 9 0 19 0;
#X connect 9 0 20 0;
#X connect 11 0 8 1;
#X connect 11 0 7 1;
#X connect 11 0 6 1;
#X connect 12 0 13 0;
#X connect 13 0 3 0;
#X connect 14 0 4 0;
#X connect 15 0 5 0;
#X connect 16 0 17 0;
#X connect 17 0 10 0;
#X connect 18 0 17 0;
#X connect 19 0 14 0;
#X connect 20 0 15 0;
#X restore 88 134 pd engine;
#X text 857 83 <-- !!! this is where the magic happens !!!;
#X obj 88 266 *~ 0.05;
#X msg 205 226 0;
#X msg 249 228 0.05;
#X obj 797 84 lop~ 0.2;
#X obj 90 159 *~ 1;
#X msg 302 228 0.15;
#X msg 362 233 0.25;
#X msg 186 337 stop;
#X obj 103 391 writesf~ 2;
#X msg 156 310 open 1_Motor.wav \, start;
#X floatatom 89 79 5 0 0 0 - - -;
#X connect 0 0 4 0;
#X connect 1 0 16 0;
#X connect 2 0 6 0;
#X connect 4 0 10 0;
#X connect 6 0 3 0;
#X connect 6 0 3 1;
#X connect 6 0 14 0;
#X connect 6 0 14 1;
#X connect 7 0 6 1;
#X connect 8 0 6 1;
#X connect 10 0 2 0;
#X connect 11 0 6 1;
#X connect 12 0 6 1;
#X connect 13 0 14 0;
#X connect 15 0 14 0;
#X connect 16 0 0 0;
