#N canvas -8 0 1294 1326 12;
#X obj 166 261 sig~;
#X obj 151 94 hsl 240 12 0.012 0.045 1 0 empty empty speed 16 6 1 8
-260097 -1 -1 0 1;
#X obj 166 445 +~;
#X obj 159 593 dac~;
#X obj 169 497 lop~ 11000;
#N canvas 1300 0 1250 1326 engine 1;
#X obj 83 317 osc~;
#X obj 187 325 osc~;
#X obj 260 319 osc~;
#X obj 76 130 sig~;
#X obj 181 130 sig~;
#X obj 266 131 sig~;
#X obj 83 285 *~;
#X obj 188 290 *~;
#X obj 260 283 *~;
#X obj 27 14 loadbang;
#X obj 157 602 outlet~;
#X obj 308 181 inlet~ engine speed;
#X floatatom 76 94 5 0 0 0 - - -;
#X floatatom 182 96 5 0 0 0 - - -;
#X floatatom 263 97 5 0 0 0 - - -;
#X obj 170 397 *~ 0.7;
#X obj 92 395 *~ 0.5;
#X obj 157 516 clip~ -0.5 0.5;
#X obj 283 456 loadbang;
#X floatatom 278 511 5 0 0 0 - - -;
#X obj 277 539 * -1;
#X msg 282 484 1;
#X obj 156 558 lop~ 300;
#X obj 244 397 *~ 0.3;
#X msg 75 64 2894;
#X msg 178 65 5760;
#X msg 262 67 7232;
#X connect 0 0 16 0;
#X connect 1 0 15 0;
#X connect 2 0 23 0;
#X connect 3 0 6 0;
#X connect 4 0 7 0;
#X connect 5 0 8 0;
#X connect 6 0 0 0;
#X connect 7 0 1 0;
#X connect 8 0 2 0;
#X connect 9 0 24 0;
#X connect 9 0 25 0;
#X connect 9 0 26 0;
#X connect 11 0 8 1;
#X connect 11 0 7 1;
#X connect 11 0 6 1;
#X connect 12 0 3 0;
#X connect 13 0 4 0;
#X connect 14 0 5 0;
#X connect 15 0 17 0;
#X connect 16 0 17 0;
#X connect 17 0 22 0;
#X connect 18 0 21 0;
#X connect 19 0 17 2;
#X connect 19 0 20 0;
#X connect 20 0 17 1;
#X connect 21 0 19 0;
#X connect 22 0 10 0;
#X connect 23 0 17 0;
#X connect 24 0 12 0;
#X connect 25 0 13 0;
#X connect 26 0 14 0;
#X restore 171 358 pd engine;
#X text 857 83 <-- !!! this is where the magic happens !!!;
#X obj 160 166 line, f 7;
#X floatatom 160 185 5 0 0 0 - - -;
#X text 114 144 smoothing;
#X obj 167 561 *~ 0.05;
#X msg 284 521 0;
#X msg 328 523 0.05;
#X obj 797 84 lop~ 0.2;
#X obj 166 398 *~ 1;
#X msg 183 143 250;
#X msg 381 523 0.15;
#X msg 442 524 0.25;
#X connect 0 0 5 0;
#X connect 1 0 15 0;
#X connect 1 0 7 0;
#X connect 2 0 4 0;
#X connect 4 0 10 0;
#X connect 5 0 14 0;
#X connect 7 0 8 0;
#X connect 8 0 0 0;
#X connect 10 0 3 0;
#X connect 10 0 3 1;
#X connect 11 0 10 1;
#X connect 12 0 10 1;
#X connect 14 0 2 0;
#X connect 15 0 7 1;
#X connect 16 0 10 1;
#X connect 17 0 10 1;
