#N canvas -8 0 1294 1326 12;
#X obj 166 261 sig~;
#X obj 157 93 hsl 240 12 0.012 0.045 1 0 empty empty speed 16 6 1 8
-260097 -1 -1 39300 1;
#X obj 166 445 +~;
#X obj 159 593 dac~;
#X obj 169 497 lop~ 11000;
#N canvas 1300 0 1250 1326 engine 1;
#X obj 105 469 osc~;
#X obj 144 468 osc~;
#X obj 209 477 osc~;
#X obj 282 471 osc~;
#X obj 322 473 osc~;
#X obj 100 166 sig~;
#X obj 179 167 sig~;
#X obj 233 169 sig~;
#X obj 375 168 sig~;
#X obj 440 164 sig~;
#X obj 105 437 *~;
#X obj 144 435 *~;
#X obj 210 442 *~;
#X obj 282 435 *~;
#X obj 322 436 *~;
#X obj 52 7 loadbang;
#X obj 179 754 outlet~;
#X obj 432 307 inlet~ engine speed;
#X floatatom 101 87 5 0 0 0 - - -;
#X floatatom 178 93 5 0 0 0 - - -;
#X floatatom 235 92 5 0 0 0 - - -;
#X floatatom 373 91 5 0 0 0 - - -;
#X floatatom 437 92 5 0 0 0 - - -;
#X obj 179 668 clip~ -0.5 0.5;
#X obj 331 551 loadbang;
#X floatatom 389 621 5 0 0 0 - - -;
#X obj 316 622 * -1;
#X obj 246 477 osc~;
#X obj 279 170 sig~;
#X obj 246 445 *~;
#X floatatom 280 91 5 0 0 0 - - -;
#X msg 393 594 5;
#X obj 266 549 *~ 0.4;
#X obj 32 168 sig~;
#X floatatom 32 100 5 0 0 0 - - -;
#X obj 42 465 osc~;
#X obj 42 433 *~;
#X obj 114 547 *~ 0.8;
#X msg 372 61 7828;
#X msg 436 61 8967;
#X obj 192 549 *~ 0.5;
#X msg 32 59 2184;
#X msg 100 57 2796;
#X msg 178 57 3591;
#X msg 231 61 5820;
#X msg 279 61 6915;
#X connect 0 0 37 0;
#X connect 1 0 37 0;
#X connect 2 0 40 0;
#X connect 3 0 32 0;
#X connect 4 0 32 0;
#X connect 5 0 10 0;
#X connect 6 0 11 0;
#X connect 7 0 12 0;
#X connect 8 0 13 0;
#X connect 9 0 14 0;
#X connect 10 0 0 0;
#X connect 11 0 1 0;
#X connect 12 0 2 0;
#X connect 13 0 3 0;
#X connect 14 0 4 0;
#X connect 15 0 42 0;
#X connect 15 0 43 0;
#X connect 15 0 44 0;
#X connect 15 0 38 0;
#X connect 15 0 39 0;
#X connect 15 0 41 0;
#X connect 17 0 14 1;
#X connect 17 0 13 1;
#X connect 17 0 12 1;
#X connect 17 0 11 1;
#X connect 17 0 10 1;
#X connect 17 0 36 1;
#X connect 17 0 29 1;
#X connect 18 0 5 0;
#X connect 19 0 6 0;
#X connect 20 0 7 0;
#X connect 21 0 8 0;
#X connect 22 0 9 0;
#X connect 23 0 16 0;
#X connect 24 0 31 0;
#X connect 25 0 23 2;
#X connect 25 0 26 0;
#X connect 26 0 23 1;
#X connect 27 0 40 0;
#X connect 28 0 29 0;
#X connect 29 0 27 0;
#X connect 30 0 28 0;
#X connect 31 0 25 0;
#X connect 32 0 23 0;
#X connect 33 0 36 0;
#X connect 34 0 33 0;
#X connect 35 0 37 0;
#X connect 36 0 35 0;
#X connect 37 0 23 0;
#X connect 38 0 21 0;
#X connect 39 0 22 0;
#X connect 40 0 23 0;
#X connect 41 0 34 0;
#X connect 42 0 18 0;
#X connect 43 0 19 0;
#X connect 44 0 20 0;
#X connect 45 0 30 0;
#X restore 171 358 pd engine;
#N canvas -9 -9 2560 1326 noise 0;
#X obj 181 186 noise~;
#X obj 597 257 loadbang;
#X msg 657 512 0.6;
#X obj 335 442 clip~ -1 1;
#X obj 509 54 inlet~;
#X obj 325 612 outlet~;
#X obj 449 485 *~ 12000;
#X msg 516 296 1;
#X obj 323 303 vcf~ 0 1;
#X obj 325 515 vcf~ 0 0.6;
#X obj 468 129 *~ 1;
#X obj 347 212 *~ 80;
#X obj 343 341 hip~ 60;
#X obj 339 395 *~ 20;
#X obj 324 566 *~ 2;
#X obj 665 59 inlet;
#X obj 665 83 * 0.25;
#X text 718 57 <-- aktueller Gang;
#X obj 181 207 bp~ 700 0.5;
#X connect 0 0 18 0;
#X connect 1 0 2 0;
#X connect 1 0 7 0;
#X connect 2 0 9 2;
#X connect 3 0 9 0;
#X connect 4 0 10 0;
#X connect 6 0 9 1;
#X connect 7 0 8 2;
#X connect 8 0 12 0;
#X connect 9 0 14 0;
#X connect 10 0 11 0;
#X connect 10 0 6 0;
#X connect 11 0 8 1;
#X connect 12 0 13 0;
#X connect 13 0 3 0;
#X connect 14 0 5 0;
#X connect 15 0 16 0;
#X connect 16 0 10 1;
#X connect 18 0 8 0;
#X restore 409 376 pd noise;
#X text 857 83 <-- !!! this is where the magic happens !!!;
#X obj 160 166 line, f 7;
#X floatatom 160 185 5 0 0 0 - - -;
#X text 114 144 smoothing;
#X obj 400 256 sig~;
#X obj 388 186 line, f 7;
#X floatatom 388 205 5 0 0 0 - - -;
#X text 342 164 smoothing;
#X msg 411 163 2000;
#X obj 167 561 *~ 0.05;
#X msg 284 521 0;
#X msg 328 523 0.05;
#X floatatom 462 317 5 1 6 0 - - -;
#X obj 465 261 float;
#X obj 572 264 float;
#X obj 465 218 bng 15 250 50 0 empty empty empty 17 7 0 10 -262144
-1 -1;
#X obj 572 221 bng 15 250 50 0 empty empty empty 17 7 0 10 -262144
-1 -1;
#X obj 497 214 + 1;
#X obj 604 219 - 1;
#X obj 797 84 lop~ 0.2;
#X text 507 318 <-- only 1 to 6;
#X obj 166 398 *~ 1;
#X obj 409 400 *~ 1.2;
#X msg 183 143 250;
#X msg 381 523 0.15;
#X msg 433 524 0.25;
#X msg 479 525 0.4;
#X connect 0 0 5 0;
#X connect 1 0 30 0;
#X connect 1 0 8 0;
#X connect 1 0 12 0;
#X connect 1 0 15 0;
#X connect 2 0 4 0;
#X connect 4 0 16 0;
#X connect 5 0 28 0;
#X connect 6 0 29 0;
#X connect 8 0 9 0;
#X connect 9 0 0 0;
#X connect 11 0 6 0;
#X connect 12 0 13 0;
#X connect 13 0 11 0;
#X connect 15 0 12 1;
#X connect 16 0 3 0;
#X connect 16 0 3 1;
#X connect 17 0 16 1;
#X connect 18 0 16 1;
#X connect 19 0 6 1;
#X connect 20 0 24 0;
#X connect 20 0 19 0;
#X connect 20 0 21 1;
#X connect 21 0 19 0;
#X connect 21 0 25 0;
#X connect 21 0 20 1;
#X connect 22 0 20 0;
#X connect 23 0 21 0;
#X connect 24 0 20 1;
#X connect 25 0 21 1;
#X connect 28 0 2 0;
#X connect 29 0 2 1;
#X connect 30 0 8 1;
#X connect 31 0 16 1;
#X connect 32 0 16 1;
#X connect 33 0 16 1;
