#N canvas 13 352 937 966 12;
#X obj 160 218 sig~;
#X obj 59 88 hsl 500 30 0.012 0.08 1 0 empty empty speed 230 14 2 20
-260097 -261682 -45076 40000 1;
#X obj 155 348 +~;
#X obj 131 575 dac~;
#X obj 158 400 lop~ 11000;
#N canvas 937 0 973 966 engine 0;
#X obj 105 502 osc~;
#X obj 207 500 osc~;
#X obj 337 490 osc~;
#X obj 468 502 osc~;
#X obj 563 501 osc~;
#X obj 100 166 sig~;
#X obj 179 167 sig~;
#X obj 287 169 sig~;
#X obj 375 168 sig~;
#X obj 440 164 sig~;
#X obj 105 437 *~;
#X obj 206 434 *~;
#X obj 339 429 *~;
#X obj 468 440 *~;
#X obj 562 442 *~;
#X obj 52 7 loadbang;
#X obj 179 754 outlet~;
#X obj 509 302 inlet~ engine speed;
#X floatatom 101 87 5 0 0 0 - - -;
#X floatatom 177 91 5 0 0 0 - - -;
#X floatatom 289 92 5 0 0 0 - - -;
#X floatatom 373 91 5 0 0 0 - - -;
#X floatatom 436 90 5 0 0 0 - - -;
#X obj 179 668 clip~ -0.5 0.5;
#X obj 304 614 loadbang;
#X floatatom 300 671 5 0 0 0 - - -;
#X obj 303 699 * -1;
#X obj 178 710 lop~ 300;
#X msg 100 57 1911;
#X obj 106 472 +~;
#X obj 140 435 noise~;
#X obj 206 471 +~;
#X obj 338 459 +~;
#X obj 470 473 +~;
#X obj 561 473 +~;
#X obj 245 429 noise~;
#X obj 384 416 noise~;
#X obj 506 425 noise~;
#X obj 604 418 noise~;
#X obj 108 555 *~;
#X obj 127 527 tgl 15 0 empty empty empty 17 7 0 10 -262144 -1 -1 1
1;
#X obj 165 552 *~;
#X obj 209 533 tgl 15 0 empty empty empty 17 7 0 10 -262144 -1 -1 1
1;
#X obj 282 552 *~;
#X obj 326 528 tgl 15 0 empty empty empty 17 7 0 10 -262144 -1 -1 1
1;
#X obj 477 558 *~;
#X obj 496 530 tgl 15 0 empty empty empty 17 7 0 10 -262144 -1 -1 1
1;
#X obj 550 560 *~;
#X obj 569 532 tgl 15 0 empty empty empty 17 7 0 10 -262144 -1 -1 1
1;
#X obj 506 449 *~ 70;
#X obj 604 442 *~ 50;
#X obj 384 440 *~ 150;
#X obj 488 606 *~ 0.2;
#X obj 111 591 *~ 0.8;
#X msg 178 57 3825;
#X msg 285 61 6528;
#X msg 372 61 7764;
#X msg 436 61 13727;
#X obj 142 461 *~ 200;
#X obj 245 453 *~ 150;
#X msg 304 644 0.6;
#X obj 270 592 *~ 0.6;
#X connect 0 0 39 0;
#X connect 1 0 41 0;
#X connect 2 0 43 0;
#X connect 3 0 45 0;
#X connect 4 0 47 0;
#X connect 5 0 10 0;
#X connect 6 0 11 0;
#X connect 7 0 12 0;
#X connect 8 0 13 0;
#X connect 9 0 14 0;
#X connect 10 0 29 0;
#X connect 11 0 31 0;
#X connect 12 0 32 0;
#X connect 13 0 33 0;
#X connect 14 0 34 0;
#X connect 15 0 28 0;
#X connect 15 0 54 0;
#X connect 15 0 55 0;
#X connect 15 0 56 0;
#X connect 15 0 57 0;
#X connect 17 0 14 1;
#X connect 17 0 13 1;
#X connect 17 0 12 1;
#X connect 17 0 11 1;
#X connect 17 0 10 1;
#X connect 18 0 5 0;
#X connect 19 0 6 0;
#X connect 20 0 7 0;
#X connect 21 0 8 0;
#X connect 22 0 9 0;
#X connect 23 0 27 0;
#X connect 24 0 60 0;
#X connect 25 0 23 2;
#X connect 25 0 26 0;
#X connect 26 0 23 1;
#X connect 27 0 16 0;
#X connect 28 0 18 0;
#X connect 29 0 0 0;
#X connect 30 0 58 0;
#X connect 31 0 1 0;
#X connect 32 0 2 0;
#X connect 33 0 3 0;
#X connect 34 0 4 0;
#X connect 35 0 59 0;
#X connect 36 0 51 0;
#X connect 37 0 49 0;
#X connect 38 0 50 0;
#X connect 39 0 53 0;
#X connect 40 0 39 1;
#X connect 41 0 53 0;
#X connect 42 0 41 1;
#X connect 43 0 61 0;
#X connect 44 0 43 1;
#X connect 45 0 52 0;
#X connect 46 0 45 1;
#X connect 47 0 52 0;
#X connect 48 0 47 1;
#X connect 49 0 33 1;
#X connect 50 0 34 1;
#X connect 51 0 32 1;
#X connect 52 0 23 0;
#X connect 53 0 23 0;
#X connect 54 0 19 0;
#X connect 55 0 20 0;
#X connect 56 0 21 0;
#X connect 57 0 22 0;
#X connect 58 0 29 1;
#X connect 59 0 31 1;
#X connect 60 0 25 0;
#X connect 61 0 23 0;
#X restore 160 261 pd engine;
#X obj 160 166 line, f 7;
#X floatatom 160 185 5 0 0 0 - - -;
#X text 114 144 smoothing;
#X obj 156 464 *~ 0.05;
#X msg 273 424 0;
#X msg 317 426 0.05;
#X obj 155 301 *~ 1;
#X msg 183 143 250;
#X msg 370 426 0.15;
#X msg 268 30 stop;
#X obj 243 576 writesf~ 2;
#X msg 467 428 0.8;
#X msg 419 425 0.4;
#X msg 277 58 open scene_3_motor.wav \, start;
#X connect 0 0 5 0;
#X connect 1 0 13 0;
#X connect 1 0 6 0;
#X connect 2 0 4 0;
#X connect 4 0 9 0;
#X connect 5 0 12 0;
#X connect 6 0 7 0;
#X connect 7 0 0 0;
#X connect 9 0 3 0;
#X connect 9 0 3 1;
#X connect 9 0 16 0;
#X connect 9 0 16 1;
#X connect 10 0 9 1;
#X connect 11 0 9 1;
#X connect 12 0 2 0;
#X connect 13 0 6 1;
#X connect 14 0 9 1;
#X connect 15 0 16 0;
#X connect 17 0 9 1;
#X connect 18 0 9 1;
#X connect 19 0 16 0;
