#N canvas -8 0 1294 1326 12;
#X obj 166 261 sig~;
#X obj 153 94 hsl 240 12 0.012 0.07 1 0 empty empty speed 16 6 1 8
-260097 -1 -1 12600 1;
#X obj 166 445 +~;
#X obj 159 593 dac~;
#X obj 169 497 lop~ 11000;
#N canvas 1300 0 1250 1326 engine 1;
#X obj 105 469 osc~;
#X obj 144 468 osc~;
#X obj 209 477 osc~;
#X obj 282 471 osc~;
#X obj 322 473 osc~;
#X obj 100 166 sig~;
#X obj 179 167 sig~;
#X obj 287 169 sig~;
#X obj 375 168 sig~;
#X obj 440 164 sig~;
#X obj 105 437 *~;
#X obj 144 435 *~;
#X obj 210 442 *~;
#X obj 282 435 *~;
#X obj 322 436 *~;
#X obj 52 7 loadbang;
#X obj 179 754 outlet~;
#X obj 432 307 inlet~ engine speed;
#X floatatom 101 87 5 0 0 0 - - -;
#X floatatom 177 91 5 0 0 0 - - -;
#X floatatom 289 92 5 0 0 0 - - -;
#X floatatom 373 91 5 0 0 0 - - -;
#X floatatom 437 92 5 0 0 0 - - -;
#X obj 179 668 clip~ -0.5 0.5;
#X obj 304 614 loadbang;
#X floatatom 300 671 5 0 0 0 - - -;
#X obj 303 699 * -1;
#X obj 178 710 lop~ 300;
#X obj 266 549 *~ 0.4;
#X obj 192 549 *~ 0.6;
#X obj 113 547 *~ 0.6;
#X msg 100 57 1911;
#X msg 178 57 3373;
#X msg 285 61 5859;
#X msg 372 61 6591;
#X msg 436 61 12857;
#X msg 304 644 0.8;
#X connect 0 0 30 0;
#X connect 1 0 30 0;
#X connect 2 0 29 0;
#X connect 3 0 28 0;
#X connect 4 0 28 0;
#X connect 5 0 10 0;
#X connect 6 0 11 0;
#X connect 7 0 12 0;
#X connect 8 0 13 0;
#X connect 9 0 14 0;
#X connect 10 0 0 0;
#X connect 11 0 1 0;
#X connect 12 0 2 0;
#X connect 13 0 3 0;
#X connect 14 0 4 0;
#X connect 15 0 31 0;
#X connect 15 0 32 0;
#X connect 15 0 33 0;
#X connect 15 0 34 0;
#X connect 15 0 35 0;
#X connect 17 0 14 1;
#X connect 17 0 13 1;
#X connect 17 0 12 1;
#X connect 17 0 11 1;
#X connect 17 0 10 1;
#X connect 18 0 5 0;
#X connect 19 0 6 0;
#X connect 20 0 7 0;
#X connect 21 0 8 0;
#X connect 22 0 9 0;
#X connect 23 0 27 0;
#X connect 24 0 36 0;
#X connect 25 0 23 2;
#X connect 25 0 26 0;
#X connect 26 0 23 1;
#X connect 27 0 16 0;
#X connect 28 0 23 0;
#X connect 29 0 23 0;
#X connect 30 0 23 0;
#X connect 31 0 18 0;
#X connect 32 0 19 0;
#X connect 33 0 20 0;
#X connect 34 0 21 0;
#X connect 35 0 22 0;
#X connect 36 0 25 0;
#X restore 171 358 pd engine;
#X text 857 83 <-- !!! this is where the magic happens !!!;
#X obj 160 166 line, f 7;
#X floatatom 160 185 5 0 0 0 - - -;
#X text 114 144 smoothing;
#X obj 167 561 *~ 0.05;
#X msg 284 521 0;
#X msg 328 523 0.05;
#X obj 797 84 lop~ 0.2;
#X obj 166 398 *~ 1;
#X msg 183 143 250;
#X msg 381 523 0.15;
#X msg 433 524 0.25;
#X connect 0 0 5 0;
#X connect 1 0 15 0;
#X connect 1 0 7 0;
#X connect 2 0 4 0;
#X connect 4 0 10 0;
#X connect 5 0 14 0;
#X connect 7 0 8 0;
#X connect 8 0 0 0;
#X connect 10 0 3 0;
#X connect 10 0 3 1;
#X connect 11 0 10 1;
#X connect 12 0 10 1;
#X connect 14 0 2 0;
#X connect 15 0 7 1;
#X connect 16 0 10 1;
