#N canvas -9 -9 2560 1326 12;
#X obj 93 182 sig~;
#X obj 100 14 hsl 120 12 0.01 0.08 1 0 empty empty speed 16 6 1 8 -260097
-1 -1 0 1;
#X obj 93 366 +~;
#X obj 86 514 dac~;
#X obj 96 418 lop~ 11000;
#N canvas 948 266 1211 1094 engine 0;
#X msg 160 16 3097 4495 5588 7471 11000;
#X obj 100 277 osc~;
#X obj 139 276 osc~;
#X obj 178 276 osc~;
#X obj 216 275 osc~;
#X obj 256 277 osc~;
#X obj 185 48 unpack f f f f f;
#X obj 101 111 sig~;
#X obj 139 111 sig~;
#X obj 179 110 sig~;
#X obj 217 110 sig~;
#X obj 256 110 sig~;
#X obj 100 245 *~;
#X obj 139 243 *~;
#X obj 179 241 *~;
#X obj 216 239 *~;
#X obj 256 240 *~;
#X obj 119 313 *~ 0.25;
#X obj 237 313 *~ 0.4;
#X obj 52 7 loadbang;
#X obj 175 384 clip~ -0.9 0.9;
#X obj 175 470 outlet~;
#X obj 386 101 inlet~ engine speed;
#X obj 175 426 lop~ 500;
#X connect 0 0 6 0;
#X connect 1 0 17 0;
#X connect 2 0 17 0;
#X connect 3 0 20 0;
#X connect 4 0 18 0;
#X connect 5 0 18 0;
#X connect 6 0 7 0;
#X connect 6 1 8 0;
#X connect 6 2 9 0;
#X connect 6 3 10 0;
#X connect 6 4 11 0;
#X connect 7 0 12 0;
#X connect 8 0 13 0;
#X connect 9 0 14 0;
#X connect 10 0 15 0;
#X connect 11 0 16 0;
#X connect 12 0 1 0;
#X connect 13 0 2 0;
#X connect 14 0 3 0;
#X connect 15 0 4 0;
#X connect 16 0 5 0;
#X connect 17 0 20 0;
#X connect 18 0 20 0;
#X connect 19 0 0 0;
#X connect 20 0 23 0;
#X connect 22 0 16 1;
#X connect 22 0 15 1;
#X connect 22 0 14 1;
#X connect 22 0 13 1;
#X connect 22 0 12 1;
#X connect 23 0 21 0;
#X restore 98 279 pd engine;
#N canvas -9 -9 2560 1326 noise 0;
#X obj 181 186 noise~;
#X obj 597 257 loadbang;
#X msg 657 512 0.6;
#X obj 335 442 clip~ -1 1;
#X obj 509 54 inlet~;
#X obj 325 612 outlet~;
#X obj 449 485 *~ 12000;
#X msg 516 296 1;
#X obj 323 303 vcf~ 0 1;
#X obj 325 515 vcf~ 0 0.6;
#X obj 468 129 *~ 1;
#X obj 347 212 *~ 80;
#X obj 343 341 hip~ 60;
#X obj 339 395 *~ 20;
#X obj 324 566 *~ 2;
#X obj 665 59 inlet;
#X obj 665 83 * 0.25;
#X text 718 57 <-- aktueller Gang;
#X obj 181 207 bp~ 700 0.5;
#X connect 0 0 18 0;
#X connect 1 0 2 0;
#X connect 1 0 7 0;
#X connect 2 0 9 2;
#X connect 3 0 9 0;
#X connect 4 0 10 0;
#X connect 6 0 9 1;
#X connect 7 0 8 2;
#X connect 8 0 12 0;
#X connect 9 0 14 0;
#X connect 10 0 11 0;
#X connect 10 0 6 0;
#X connect 11 0 8 1;
#X connect 12 0 13 0;
#X connect 13 0 3 0;
#X connect 14 0 5 0;
#X connect 15 0 16 0;
#X connect 16 0 10 1;
#X connect 18 0 8 0;
#X restore 336 297 pd noise;
#X text 857 83 <-- !!! this is where the magic happens !!!;
#X obj 87 87 line, f 7;
#X floatatom 87 106 5 0 0 0 - - -;
#X text 41 65 smoothing;
#X obj 327 177 sig~;
#X obj 315 107 line, f 7;
#X floatatom 315 126 5 0 0 0 - - -;
#X text 269 85 smoothing;
#X msg 338 84 2000;
#X obj 94 482 *~ 0.05;
#X msg 211 442 0;
#X msg 255 443 0.05;
#X floatatom 389 238 5 1 6 0 - - -;
#X obj 392 182 float;
#X obj 499 185 float;
#X obj 392 139 bng 15 250 50 0 empty empty empty 17 7 0 10 -262144
-1 -1;
#X obj 499 142 bng 15 250 50 0 empty empty empty 17 7 0 10 -262144
-1 -1;
#X obj 424 135 + 1;
#X obj 531 140 - 1;
#X obj 797 84 lop~ 0.2;
#X text 434 239 <-- only 1 to 6;
#X obj 93 319 *~ 1;
#X obj 336 321 *~ 1.2;
#X msg 110 64 500;
#X connect 0 0 5 0;
#X connect 1 0 30 0;
#X connect 1 0 8 0;
#X connect 1 0 12 0;
#X connect 1 0 15 0;
#X connect 2 0 4 0;
#X connect 4 0 16 0;
#X connect 5 0 28 0;
#X connect 6 0 29 0;
#X connect 8 0 9 0;
#X connect 9 0 0 0;
#X connect 11 0 6 0;
#X connect 12 0 13 0;
#X connect 13 0 11 0;
#X connect 15 0 12 1;
#X connect 16 0 3 0;
#X connect 16 0 3 1;
#X connect 17 0 16 1;
#X connect 18 0 16 1;
#X connect 19 0 6 1;
#X connect 20 0 24 0;
#X connect 20 0 19 0;
#X connect 20 0 21 1;
#X connect 21 0 19 0;
#X connect 21 0 25 0;
#X connect 21 0 20 1;
#X connect 22 0 20 0;
#X connect 23 0 21 0;
#X connect 24 0 20 1;
#X connect 25 0 21 1;
#X connect 28 0 2 0;
#X connect 29 0 2 1;
#X connect 30 0 8 1;
