#N canvas -8 13 1261 1227 12;
#X obj 160 207 sig~;
#X obj 19 28 hsl 600 70 0.01 0.075 1 0 empty empty speed 16 6 1 8 -260097
-1 -1 100300 1;
#X obj 161 409 +~;
#X obj 153 500 dac~;
#X obj 161 436 lop~ 11000;
#N canvas 1220 13 1250 1227 engine 1;
#X obj 105 469 osc~;
#X obj 144 468 osc~;
#X obj 209 470 osc~;
#X obj 282 471 osc~;
#X obj 322 473 osc~;
#X obj 99 319 sig~;
#X obj 144 321 sig~;
#X obj 210 320 sig~;
#X obj 280 322 sig~;
#X obj 321 319 sig~;
#X obj 105 448 *~;
#X obj 144 448 *~;
#X obj 209 449 *~;
#X obj 282 451 *~;
#X obj 322 451 *~;
#X obj 47 210 loadbang;
#X obj 11 687 outlet~;
#X obj -202 348 inlet~ engine speed;
#X msg 99 278 3097;
#X floatatom 100 299 5 0 0 0 - - -;
#X floatatom 144 301 5 0 0 0 - - -;
#X floatatom 210 298 5 0 0 0 - - -;
#X floatatom 280 301 5 0 0 0 - - -;
#X floatatom 321 299 5 0 0 0 - - -;
#X obj 11 601 clip~ -0.5 0.5;
#X obj 155 600 loadbang;
#X floatatom 124 622 5 0 0 0 - - -;
#X obj 125 647 * -1;
#X msg 124 601 1;
#X obj 282 516 *~ 0.3;
#X msg 320 276 8455;
#X msg 144 278 4495;
#X msg 210 277 5588;
#X msg 280 279 7471;
#X obj 57 471 osc~;
#X obj 51 319 sig~;
#X obj 57 449 *~;
#X floatatom 50 299 5 0 0 0 - - -;
#X obj 11 470 osc~;
#X obj 5 325 sig~;
#X obj 11 449 *~;
#X floatatom 5 302 5 0 0 0 - - -;
#X msg 50 278 1100;
#X msg 4 280 623;
#X obj 10 643 lop~ 400;
#X obj 11 514 *~ 0.7;
#X obj 210 515 *~ 0.6;
#X obj 104 515 *~ 0.7;
#X connect 0 0 47 0;
#X connect 1 0 47 0;
#X connect 2 0 46 0;
#X connect 3 0 29 0;
#X connect 4 0 29 0;
#X connect 5 0 10 0;
#X connect 6 0 11 0;
#X connect 7 0 12 0;
#X connect 8 0 13 0;
#X connect 9 0 14 0;
#X connect 10 0 0 0;
#X connect 11 0 1 0;
#X connect 12 0 2 0;
#X connect 13 0 3 0;
#X connect 14 0 4 0;
#X connect 15 0 18 0;
#X connect 15 0 31 0;
#X connect 15 0 32 0;
#X connect 15 0 33 0;
#X connect 15 0 30 0;
#X connect 15 0 43 0;
#X connect 15 0 42 0;
#X connect 17 0 14 1;
#X connect 17 0 13 1;
#X connect 17 0 12 1;
#X connect 17 0 11 1;
#X connect 17 0 10 1;
#X connect 17 0 40 0;
#X connect 17 0 36 0;
#X connect 18 0 19 0;
#X connect 19 0 5 0;
#X connect 20 0 6 0;
#X connect 21 0 7 0;
#X connect 22 0 8 0;
#X connect 23 0 9 0;
#X connect 24 0 44 0;
#X connect 25 0 28 0;
#X connect 26 0 24 2;
#X connect 26 0 27 0;
#X connect 27 0 24 1;
#X connect 28 0 26 0;
#X connect 29 0 24 0;
#X connect 30 0 23 0;
#X connect 31 0 20 0;
#X connect 32 0 21 0;
#X connect 33 0 22 0;
#X connect 34 0 45 0;
#X connect 35 0 36 0;
#X connect 36 0 34 0;
#X connect 37 0 35 0;
#X connect 38 0 45 0;
#X connect 39 0 40 0;
#X connect 40 0 38 0;
#X connect 41 0 39 0;
#X connect 42 0 37 0;
#X connect 43 0 41 0;
#X connect 44 0 16 0;
#X connect 45 0 24 0;
#X connect 46 0 24 0;
#X connect 47 0 24 0;
#X restore 161 282 pd engine;
#N canvas -9 -9 2560 1326 noise 0;
#X obj 181 186 noise~;
#X obj 597 257 loadbang;
#X msg 657 512 0.6;
#X obj 335 442 clip~ -1 1;
#X obj 509 54 inlet~;
#X obj 325 612 outlet~;
#X obj 449 485 *~ 12000;
#X msg 516 296 1;
#X obj 323 303 vcf~ 0 1;
#X obj 325 515 vcf~ 0 0.6;
#X obj 468 129 *~ 1;
#X obj 347 212 *~ 80;
#X obj 343 341 hip~ 60;
#X obj 339 395 *~ 20;
#X obj 324 566 *~ 2;
#X obj 665 59 inlet;
#X obj 665 83 * 0.25;
#X text 718 57 <-- aktueller Gang;
#X obj 181 207 bp~ 700 0.5;
#X connect 0 0 18 0;
#X connect 1 0 2 0;
#X connect 1 0 7 0;
#X connect 2 0 9 2;
#X connect 3 0 9 0;
#X connect 4 0 10 0;
#X connect 6 0 9 1;
#X connect 7 0 8 2;
#X connect 8 0 12 0;
#X connect 9 0 14 0;
#X connect 10 0 11 0;
#X connect 10 0 6 0;
#X connect 11 0 8 1;
#X connect 12 0 13 0;
#X connect 13 0 3 0;
#X connect 14 0 5 0;
#X connect 15 0 16 0;
#X connect 16 0 10 1;
#X connect 18 0 8 0;
#X restore 300 337 pd noise;
#X obj 160 166 line, f 7;
#X floatatom 160 185 5 0 0 0 - - -;
#X text 114 144 smoothing;
#X obj 300 206 sig~;
#X obj 299 165 line, f 7;
#X floatatom 299 184 5 0 0 0 - - -;
#X text 253 143 smoothing;
#X msg 322 142 2000;
#X obj 161 468 *~ 0.05;
#X msg 246 459 0;
#X msg 276 467 0.05;
#X floatatom 353 313 5 1 6 0 - - -;
#X obj 354 289 float;
#X obj 396 288 float;
#X obj 373 253 bng 15 250 50 0 empty empty empty 17 7 0 10 -262144
-1 -1;
#X obj 417 253 bng 15 250 50 0 empty empty empty 17 7 0 10 -262144
-1 -1;
#X obj 368 269 + 1;
#X obj 410 269 - 1;
#X text 398 314 <-- only 1 to 6;
#X obj 161 309 *~ 1;
#X obj 300 361 *~ 1.2;
#X msg 183 143 250;
#X msg 312 477 0.15;
#X msg 350 487 0.25;
#X msg 384 496 0.4;
#X connect 0 0 5 0;
#X connect 1 0 28 0;
#X connect 1 0 7 0;
#X connect 1 0 11 0;
#X connect 1 0 14 0;
#X connect 2 0 4 0;
#X connect 4 0 15 0;
#X connect 5 0 26 0;
#X connect 6 0 27 0;
#X connect 7 0 8 0;
#X connect 8 0 0 0;
#X connect 10 0 6 0;
#X connect 11 0 12 0;
#X connect 12 0 10 0;
#X connect 14 0 11 1;
#X connect 15 0 3 0;
#X connect 15 0 3 1;
#X connect 16 0 15 1;
#X connect 17 0 15 1;
#X connect 18 0 6 1;
#X connect 19 0 23 0;
#X connect 19 0 18 0;
#X connect 19 0 20 1;
#X connect 20 0 18 0;
#X connect 20 0 24 0;
#X connect 20 0 19 1;
#X connect 21 0 19 0;
#X connect 22 0 20 0;
#X connect 23 0 19 1;
#X connect 24 0 20 1;
#X connect 26 0 2 0;
#X connect 27 0 2 1;
#X connect 28 0 7 1;
#X connect 29 0 15 1;
#X connect 30 0 15 1;
#X connect 31 0 15 1;
