#N canvas 56 151 1183 993 12;
#X obj 93 84 lop~ 0.2;
#X obj 95 43 sig~;
#X obj 100 14 hsl 120 12 0.01 0.1 1 0 empty empty speed 16 6 1 8 -260097
-1 -1 0 1;
#X obj 88 240 +~;
#X obj 88 193 *~ 0.5;
#X obj 81 388 dac~;
#X obj 89 356 *~ 0.1;
#X obj 91 292 lop~ 11000;
#N canvas 948 266 1211 1094 engine 0;
#X msg 160 16 3097 4495 5588 7471 11000;
#X obj 100 277 osc~;
#X obj 139 276 osc~;
#X obj 178 276 osc~;
#X obj 216 275 osc~;
#X obj 256 277 osc~;
#X obj 185 48 unpack f f f f f;
#X obj 101 111 sig~;
#X obj 139 111 sig~;
#X obj 179 110 sig~;
#X obj 217 110 sig~;
#X obj 256 110 sig~;
#X obj 100 245 *~;
#X obj 139 243 *~;
#X obj 179 241 *~;
#X obj 216 239 *~;
#X obj 256 240 *~;
#X obj 119 313 *~ 0.25;
#X obj 237 313 *~ 0.4;
#X obj 52 7 loadbang;
#X obj 175 384 clip~ -0.9 0.9;
#X obj 175 438 outlet~;
#X obj 386 101 inlet~ engine speed;
#X connect 0 0 6 0;
#X connect 1 0 17 0;
#X connect 2 0 17 0;
#X connect 3 0 20 0;
#X connect 4 0 18 0;
#X connect 5 0 18 0;
#X connect 6 0 7 0;
#X connect 6 1 8 0;
#X connect 6 2 9 0;
#X connect 6 3 10 0;
#X connect 6 4 11 0;
#X connect 7 0 12 0;
#X connect 8 0 13 0;
#X connect 9 0 14 0;
#X connect 10 0 15 0;
#X connect 11 0 16 0;
#X connect 12 0 1 0;
#X connect 13 0 2 0;
#X connect 14 0 3 0;
#X connect 15 0 4 0;
#X connect 16 0 5 0;
#X connect 17 0 20 0;
#X connect 18 0 20 0;
#X connect 19 0 0 0;
#X connect 20 0 21 0;
#X connect 22 0 16 1;
#X connect 22 0 15 1;
#X connect 22 0 14 1;
#X connect 22 0 13 1;
#X connect 22 0 12 1;
#X restore 90 122 pd engine;
#N canvas 1549 242 794 881 noise 0;
#X obj 129 192 noise~;
#X obj 202 130 loadbang;
#X msg 231 165 0.6;
#X obj 129 297 clip~ -1 1;
#X obj 161 96 inlet~;
#X obj 129 362 outlet~;
#X obj 154 165 *~ 150;
#X obj 129 276 *~ 120;
#X obj 129 255 hip~ 120;
#X obj 154 144 *~;
#X obj 129 213 bp~ 8000 0.5;
#X obj 160 318 *~ 12000;
#X msg 202 165 1;
#X obj 129 234 vcf~ 0 1;
#X obj 129 341 vcf~ 0 0.6;
#X connect 0 0 10 0;
#X connect 1 0 2 0;
#X connect 1 0 12 0;
#X connect 2 0 14 2;
#X connect 3 0 14 0;
#X connect 4 0 9 0;
#X connect 4 0 9 1;
#X connect 4 0 11 0;
#X connect 6 0 13 1;
#X connect 7 0 3 0;
#X connect 8 0 7 0;
#X connect 9 0 6 0;
#X connect 10 0 13 0;
#X connect 11 0 14 1;
#X connect 12 0 13 2;
#X connect 13 0 8 0;
#X connect 14 0 5 0;
#X restore 347 153 pd noise;
#X text 168 85 <-- !!! this is where the magic happens !!!;
#X connect 0 0 8 0;
#X connect 1 0 0 0;
#X connect 2 0 1 0;
#X connect 3 0 7 0;
#X connect 4 0 3 0;
#X connect 6 0 5 0;
#X connect 6 0 5 1;
#X connect 7 0 6 0;
#X connect 8 0 4 0;
