#N canvas -9 -9 2560 1336 12;
#X obj 18 117 dac~;
#X obj 180 91 *~;
#X floatatom 198 73 5 0 0 0 - - -;
#X obj 198 35 loadbang;
#X msg 198 54 0.1;
#X obj 65 368 phasor~;
#X obj 180 110 send~ masterout;
#X obj 30 65 receive~ masterout;
#X obj 30 92 *~;
#X obj 48 41 line~;
#X floatatom 138 347 5 0 0 0 - - -;
#X obj 120 403 *~;
#X obj 138 365 phasor~;
#X obj 193 404 *~;
#X floatatom 211 348 5 0 0 0 - - -;
#X obj 211 366 phasor~;
#X obj 138 384 +~ 1;
#X obj 211 385 +~ 1;
#X obj 63 552 lop~;
#X floatatom 88 534 5 0 0 0 - - -;
#X obj 263 405 *~;
#X floatatom 281 349 5 0 0 0 - - -;
#X obj 281 367 phasor~;
#X obj 281 386 +~ 1;
#X floatatom 299 312 5 0 0 0 - - -;
#X obj 281 330 /;
#X msg 56 204 42;
#X msg 299 293 7;
#X msg 88 515 1000;
#X msg 138 328 90;
#X msg 211 329 30;
#X obj 188 191 loadbang;
#X obj 198 476 receive~ amp1;
#X obj 63 477 receive~ lop1;
#X obj 343 405 send~ lop1;
#X obj 63 571 send~ amp1;
#X obj 198 551 *~;
#X msg 216 514 1;
#X floatatom 216 533 5 0 0 0 - - -;
#X obj 216 495 loadbang;
#X obj 88 496 loadbang;
#X obj 624 226 noise~;
#X obj 626 365 send~ lop2;
#X obj 587 486 lop~;
#X obj 790 557 *~;
#X floatatom 808 539 5 0 0 0 - - -;
#X obj 808 501 loadbang;
#X obj 587 442 receive~ lop2;
#X obj 587 581 send~ amp2;
#X obj 790 482 receive~ amp2;
#X obj 625 278 *~;
#X obj 679 226 noise~;
#X obj 682 259 *~;
#X floatatom 754 286 5 0 0 0 - - -;
#X obj 683 284 +~ 1;
#X obj 629 328 /~;
#X msg 253 514 0;
#X msg 846 520 0;
#X msg 754 263 300;
#X obj 587 505 lop~;
#X obj 587 524 lop~;
#X obj 2146 1242;
#X msg 100 205 21;
#X obj 587 543 lop~;
#X obj 587 562 lop~;
#X floatatom 676 527 5 0 0 0 - - -;
#X obj 676 489 loadbang;
#X msg 676 508 350;
#X obj 56 277 line, f 7;
#X floatatom 56 233 5 0 0 0 - - -;
#X floatatom 56 296 5 0 0 0 - - -;
#X msg 116 241 0;
#X floatatom 116 260 5 0 0 0 - - -;
#X msg 79 254 150;
#X msg 808 520 30;
#X msg 84 8 1 1000;
#X msg 23 10 0 300;
#X text 73 117 masterout;
#X obj 180 16 catch~ masteramp;
#X obj 198 570 throw~ masteramp;
#X obj 790 576 throw~ masteramp;
#X text 308 109 masteramp;
#X text 818 222 background noise;
#X text 25 232 rpm;
#X text 10 255 smoothing;
#X text 339 313 acceleration potential;
#X text 280 198 motorsound here: pure FM-synthesis;
#X obj 740 228 loadbang;
#X connect 1 0 6 0;
#X connect 2 0 1 1;
#X connect 3 0 4 0;
#X connect 4 0 2 0;
#X connect 5 0 11 0;
#X connect 7 0 8 0;
#X connect 8 0 0 0;
#X connect 8 0 0 1;
#X connect 9 0 8 1;
#X connect 10 0 12 0;
#X connect 11 0 13 0;
#X connect 12 0 16 0;
#X connect 13 0 20 0;
#X connect 14 0 15 0;
#X connect 15 0 17 0;
#X connect 16 0 11 1;
#X connect 17 0 13 1;
#X connect 18 0 35 0;
#X connect 19 0 18 1;
#X connect 20 0 34 0;
#X connect 21 0 22 0;
#X connect 22 0 23 0;
#X connect 23 0 20 1;
#X connect 24 0 25 1;
#X connect 25 0 21 0;
#X connect 26 0 69 0;
#X connect 27 0 24 0;
#X connect 28 0 19 0;
#X connect 29 0 10 0;
#X connect 30 0 14 0;
#X connect 31 0 29 0;
#X connect 31 0 30 0;
#X connect 31 0 27 0;
#X connect 31 0 62 0;
#X connect 31 0 71 0;
#X connect 32 0 36 0;
#X connect 33 0 18 0;
#X connect 36 0 79 0;
#X connect 37 0 38 0;
#X connect 38 0 36 1;
#X connect 39 0 37 0;
#X connect 40 0 28 0;
#X connect 41 0 50 0;
#X connect 43 0 59 0;
#X connect 44 0 80 0;
#X connect 45 0 44 1;
#X connect 46 0 74 0;
#X connect 47 0 43 0;
#X connect 49 0 44 0;
#X connect 50 0 55 0;
#X connect 51 0 52 0;
#X connect 52 0 54 0;
#X connect 53 0 52 1;
#X connect 54 0 50 1;
#X connect 55 0 42 0;
#X connect 56 0 38 0;
#X connect 57 0 45 0;
#X connect 58 0 53 0;
#X connect 59 0 60 0;
#X connect 60 0 63 0;
#X connect 62 0 69 0;
#X connect 63 0 64 0;
#X connect 64 0 48 0;
#X connect 65 0 64 1;
#X connect 65 0 43 1;
#X connect 65 0 59 1;
#X connect 65 0 60 1;
#X connect 65 0 63 1;
#X connect 66 0 67 0;
#X connect 67 0 65 0;
#X connect 68 0 70 0;
#X connect 69 0 73 0;
#X connect 69 0 68 0;
#X connect 70 0 25 0;
#X connect 70 0 5 0;
#X connect 71 0 72 0;
#X connect 72 0 68 2;
#X connect 73 0 68 1;
#X connect 74 0 45 0;
#X connect 75 0 9 0;
#X connect 76 0 9 0;
#X connect 78 0 1 0;
#X connect 87 0 58 0;
