{
  "version": "1.1.6",
  "modules": [
    {
      "id": 1,
      "plugin": "Core",
      "version": "1.1.6",
      "model": "AudioInterface",
      "params": [],
      "data": {
        "audio": {
          "driver": 6,
          "deviceName": "Line (Steinberg UR22C)",
          "offset": 0,
          "maxChannels": 8,
          "sampleRate": 44100,
          "blockSize": 256
        }
      },
      "pos": [
        104,
        0
      ]
    },
    {
      "id": 5,
      "plugin": "Core",
      "version": "1.1.6",
      "model": "MIDIToCVInterface",
      "params": [],
      "data": {
        "channels": 1,
        "polyMode": 0,
        "clockDivision": 24,
        "lastPitch": 8192,
        "lastMod": 0,
        "midi": {
          "driver": -11,
          "deviceName": "QWERTY keyboard (US)",
          "channel": -1
        }
      },
      "pos": [
        1,
        0
      ]
    },
    {
      "id": 11,
      "plugin": "Fundamental",
      "version": "1.4.0",
      "model": "VCMixer",
      "params": [
        {
          "id": 0,
          "value": 1.38800073
        },
        {
          "id": 1,
          "value": 1.0
        },
        {
          "id": 2,
          "value": 1.0
        },
        {
          "id": 3,
          "value": 1.0
        },
        {
          "id": 4,
          "value": 1.0
        }
      ],
      "leftModuleId": 16,
      "rightModuleId": 25,
      "pos": [
        88,
        0
      ]
    },
    {
      "id": 12,
      "plugin": "Fundamental",
      "version": "1.4.0",
      "model": "LFO",
      "params": [
        {
          "id": 0,
          "value": 1.0
        },
        {
          "id": 1,
          "value": 1.0
        },
        {
          "id": 2,
          "value": 7.43499947
        },
        {
          "id": 3,
          "value": 1.0
        },
        {
          "id": 4,
          "value": 0.0
        },
        {
          "id": 5,
          "value": 0.5
        },
        {
          "id": 6,
          "value": 0.0
        }
      ],
      "pos": [
        11,
        0
      ]
    },
    {
      "id": 13,
      "plugin": "Fundamental",
      "version": "1.4.0",
      "model": "LFO",
      "params": [
        {
          "id": 0,
          "value": 1.0
        },
        {
          "id": 1,
          "value": 1.0
        },
        {
          "id": 2,
          "value": 5.57200003
        },
        {
          "id": 3,
          "value": 1.0
        },
        {
          "id": 4,
          "value": 0.708000183
        },
        {
          "id": 5,
          "value": 0.5
        },
        {
          "id": 6,
          "value": 0.0
        }
      ],
      "pos": [
        23,
        0
      ]
    },
    {
      "id": 16,
      "plugin": "AudibleInstruments",
      "version": "1.5.0",
      "model": "Shelves",
      "params": [
        {
          "id": 0,
          "value": 7.64053965
        },
        {
          "id": 1,
          "value": -10.2959967
        },
        {
          "id": 2,
          "value": 6.92797518
        },
        {
          "id": 3,
          "value": -11.7720003
        },
        {
          "id": 4,
          "value": 2.16096401
        },
        {
          "id": 5,
          "value": 7.04756737
        },
        {
          "id": 6,
          "value": -5.61600018
        },
        {
          "id": 7,
          "value": 2.16096401
        },
        {
          "id": 8,
          "value": 9.30482006
        },
        {
          "id": 9,
          "value": 0.0
        }
      ],
      "leftModuleId": 22,
      "rightModuleId": 11,
      "data": {
        "preGain": false
      },
      "pos": [
        70,
        0
      ]
    },
    {
      "id": 19,
      "plugin": "AudibleInstruments",
      "version": "1.5.0",
      "model": "Warps",
      "params": [
        {
          "id": 0,
          "value": 4.96800041
        },
        {
          "id": 1,
          "value": 0.493499875
        },
        {
          "id": 2,
          "value": 0.0
        },
        {
          "id": 3,
          "value": 1.0
        },
        {
          "id": 4,
          "value": 0.344499856
        }
      ],
      "rightModuleId": 23,
      "data": {
        "shape": 0
      },
      "pos": [
        34,
        0
      ]
    },
    {
      "id": 21,
      "plugin": "Fundamental",
      "version": "1.4.0",
      "model": "LFO",
      "params": [
        {
          "id": 0,
          "value": 1.0
        },
        {
          "id": 1,
          "value": 1.0
        },
        {
          "id": 2,
          "value": 5.6439724
        },
        {
          "id": 3,
          "value": 0.0
        },
        {
          "id": 4,
          "value": 0.0
        },
        {
          "id": 5,
          "value": 0.5
        },
        {
          "id": 6,
          "value": 0.0
        }
      ],
      "leftModuleId": 23,
      "rightModuleId": 24,
      "pos": [
        47,
        0
      ]
    },
    {
      "id": 22,
      "plugin": "AudibleInstruments",
      "version": "1.5.0",
      "model": "Warps",
      "params": [
        {
          "id": 0,
          "value": 2.15599799
        },
        {
          "id": 1,
          "value": 0.361999989
        },
        {
          "id": 2,
          "value": 0.0
        },
        {
          "id": 3,
          "value": 0.99149996
        },
        {
          "id": 4,
          "value": 1.0
        }
      ],
      "leftModuleId": 24,
      "rightModuleId": 16,
      "data": {
        "shape": 0
      },
      "pos": [
        60,
        0
      ]
    },
    {
      "id": 23,
      "plugin": "Fundamental",
      "version": "1.4.0",
      "model": "VCA-1",
      "params": [
        {
          "id": 0,
          "value": 1.0
        },
        {
          "id": 1,
          "value": 1.0
        }
      ],
      "leftModuleId": 19,
      "rightModuleId": 21,
      "pos": [
        44,
        0
      ]
    },
    {
      "id": 24,
      "plugin": "Fundamental",
      "version": "1.4.0",
      "model": "VCA-1",
      "params": [
        {
          "id": 0,
          "value": 0.771999896
        },
        {
          "id": 1,
          "value": 1.0
        }
      ],
      "leftModuleId": 21,
      "rightModuleId": 22,
      "pos": [
        57,
        0
      ]
    },
    {
      "id": 25,
      "plugin": "Fundamental",
      "version": "1.4.0",
      "model": "VCA-1",
      "params": [
        {
          "id": 0,
          "value": 1.0
        },
        {
          "id": 1,
          "value": 1.0
        }
      ],
      "leftModuleId": 11,
      "pos": [
        98,
        0
      ]
    },
    {
      "id": 26,
      "plugin": "Fundamental",
      "version": "1.4.0",
      "model": "LFO2",
      "params": [
        {
          "id": 0,
          "value": 1.0
        },
        {
          "id": 1,
          "value": 1.0
        },
        {
          "id": 2,
          "value": 5.70700026
        },
        {
          "id": 3,
          "value": 1.73999882
        },
        {
          "id": 4,
          "value": 0.122500017
        }
      ],
      "leftModuleId": 27,
      "pos": [
        24,
        2
      ]
    },
    {
      "id": 27,
      "plugin": "Fundamental",
      "version": "1.4.0",
      "model": "LFO2",
      "params": [
        {
          "id": 0,
          "value": 1.0
        },
        {
          "id": 1,
          "value": 1.0
        },
        {
          "id": 2,
          "value": 4.84298468
        },
        {
          "id": 3,
          "value": 3.0
        },
        {
          "id": 4,
          "value": 1.0
        }
      ],
      "rightModuleId": 26,
      "pos": [
        18,
        2
      ]
    },
    {
      "id": 28,
      "plugin": "Fundamental",
      "version": "1.4.0",
      "model": "LFO2",
      "params": [
        {
          "id": 0,
          "value": 1.0
        },
        {
          "id": 1,
          "value": 1.0
        },
        {
          "id": 2,
          "value": 3.95198655
        },
        {
          "id": 3,
          "value": 3.0
        },
        {
          "id": 4,
          "value": 0.512500107
        }
      ],
      "rightModuleId": 30,
      "pos": [
        18,
        1
      ]
    },
    {
      "id": 29,
      "plugin": "Fundamental",
      "version": "1.4.0",
      "model": "LFO2",
      "params": [
        {
          "id": 0,
          "value": 1.0
        },
        {
          "id": 1,
          "value": 1.0
        },
        {
          "id": 2,
          "value": -8.0
        },
        {
          "id": 3,
          "value": 1.06050122
        },
        {
          "id": 4,
          "value": 1.0
        }
      ],
      "pos": [
        0,
        1
      ]
    },
    {
      "id": 30,
      "plugin": "Fundamental",
      "version": "1.4.0",
      "model": "LFO2",
      "params": [
        {
          "id": 0,
          "value": 1.0
        },
        {
          "id": 1,
          "value": 1.0
        },
        {
          "id": 2,
          "value": 3.55598688
        },
        {
          "id": 3,
          "value": 1.23899961
        },
        {
          "id": 4,
          "value": 0.285000056
        }
      ],
      "leftModuleId": 28,
      "pos": [
        24,
        1
      ]
    },
    {
      "id": 32,
      "plugin": "AudibleInstruments",
      "version": "1.5.0",
      "model": "Ripples",
      "params": [
        {
          "id": 0,
          "value": 0.456
        },
        {
          "id": 1,
          "value": 6.29019451
        },
        {
          "id": 2,
          "value": 0.0
        }
      ],
      "leftModuleId": 34,
      "pos": [
        79,
        1
      ]
    },
    {
      "id": 33,
      "plugin": "AmalgamatedHarmonics",
      "version": "1.0.4",
      "model": "PolyScope",
      "params": [
        {
          "id": 0,
          "value": -0.809999764
        },
        {
          "id": 1,
          "value": 1.11000049
        },
        {
          "id": 2,
          "value": 13.6299934
        },
        {
          "id": 3,
          "value": 2.54399991
        }
      ],
      "data": {
        "cmap": 1,
        "path": ""
      },
      "pos": [
        49,
        1
      ]
    },
    {
      "id": 34,
      "plugin": "AudibleInstruments",
      "version": "1.5.0",
      "model": "Links",
      "params": [],
      "rightModuleId": 32,
      "pos": [
        75,
        1
      ]
    }
  ],
  "cables": [
    {
      "id": 417,
      "outputModuleId": 16,
      "outputId": 0,
      "inputModuleId": 11,
      "inputId": 1,
      "color": "#c91847"
    },
    {
      "id": 409,
      "outputModuleId": 11,
      "outputId": 0,
      "inputModuleId": 25,
      "inputId": 1,
      "color": "#c9b70e"
    },
    {
      "id": 426,
      "outputModuleId": 25,
      "outputId": 0,
      "inputModuleId": 1,
      "inputId": 0,
      "color": "#0986ad"
    },
    {
      "id": 427,
      "outputModuleId": 25,
      "outputId": 0,
      "inputModuleId": 1,
      "inputId": 1,
      "color": "#c9b70e"
    },
    {
      "id": 428,
      "outputModuleId": 19,
      "outputId": 0,
      "inputModuleId": 23,
      "inputId": 1,
      "color": "#0c8e15"
    },
    {
      "id": 424,
      "outputModuleId": 21,
      "outputId": 0,
      "inputModuleId": 24,
      "inputId": 1,
      "color": "#c9b70e"
    },
    {
      "id": 430,
      "outputModuleId": 24,
      "outputId": 0,
      "inputModuleId": 22,
      "inputId": 4,
      "color": "#0986ad"
    },
    {
      "id": 421,
      "outputModuleId": 13,
      "outputId": 3,
      "inputModuleId": 19,
      "inputId": 5,
      "color": "#0c8e15"
    },
    {
      "id": 420,
      "outputModuleId": 12,
      "outputId": 0,
      "inputModuleId": 19,
      "inputId": 4,
      "color": "#c9b70e"
    },
    {
      "id": 445,
      "outputModuleId": 34,
      "outputId": 5,
      "inputModuleId": 32,
      "inputId": 3,
      "color": "#0c8e15"
    },
    {
      "id": 441,
      "outputModuleId": 32,
      "outputId": 0,
      "inputModuleId": 11,
      "inputId": 2,
      "color": "#c9b70e"
    },
    {
      "id": 449,
      "outputModuleId": 26,
      "outputId": 0,
      "inputModuleId": 30,
      "inputId": 0,
      "color": "#0c8e15"
    },
    {
      "id": 442,
      "outputModuleId": 30,
      "outputId": 0,
      "inputModuleId": 33,
      "inputId": 0,
      "color": "#0c8e15"
    },
    {
      "id": 450,
      "outputModuleId": 30,
      "outputId": 0,
      "inputModuleId": 34,
      "inputId": 5,
      "color": "#c91847"
    },
    {
      "id": 451,
      "outputModuleId": 26,
      "outputId": 0,
      "inputModuleId": 34,
      "inputId": 3,
      "color": "#0986ad"
    }
  ]
}